:FULLY-SPECIFIED
:FORCE-ALL-JOINTS-BE-3DOF
:DEGREES
816
root -5.30846 14.6101 -40.4445 26.8156 -73.6233 -17.4599
lfemur -70.1334 20.3694 -23.1072
ltibia 86.8888 -0 0
lfoot -7.70994 9.37085 -0.0239251
ltoes -15.3993 0 0
rfemur -33.3104 -9.57536 22.9937
rtibia 71.8339 -0 0
rfoot -32.9071 -27.1266 0.0202112
rtoes -22.1743 0 0
lowerback 18.2233 0.460486 4.59778
upperback 0.283454 1.63567 1.27095
thorax -9.85972 0.563729 -1.65081
lowerneck -2.22848 12.8862 5.11477
upperneck -1.51245 17.1398 -9.07952
head 1.23718 8.52998 -3.30168
lclavicle 0 0 0
lhumerus 103.87 -34.5938 19.6056
lradius 100.217 -0 0
lwrist 16.5398 0 0
lhand -9.61211 23.5426 -0.0393368
lfingers 0 0 0
lthumb 16.3559 52.8443 -0.0416477
rclavicle 0 0 0
rhumerus 26.5428 39.681 -57.7221
rradius 65.5885 -0 0
rwrist -9.59278 0 0
rhand -12.9321 -40.0813 0.023968
rfingers 0 0 0
rthumb 13.1535 -69.5923 0.0423964
817
root -5.24881 14.6183 -40.4705 26.1107 -73.1666 -16.6906
lfemur -70.2307 20.4206 -23.3794
ltibia 87.1213 -0 0
lfoot -7.80299 9.49911 -0.0157473
ltoes -15.4153 0 0
rfemur -33.6215 -9.63902 23.2016
rtibia 71.8769 -0 0
rfoot -32.9986 -27.2369 0.013303
rtoes -22.1126 0 0
lowerback 18.2727 0.434759 4.64229
upperback 0.294513 1.61166 1.23989
thorax -9.87264 0.548591 -1.7051
lowerneck -2.21327 12.9496 5.15405
upperneck -1.55373 17.2225 -9.17497
head 1.23732 8.57226 -3.33487
lclavicle 0 0 0
lhumerus 104.834 -34.7304 18.3114
lradius 101.308 -0 0
lwrist 17.4234 0 0
lhand -9.38486 23.4567 -0.0258894
lfingers 0 0 0
lthumb 16.5752 52.75 -0.0274104
rclavicle 0 0 0
rhumerus 27.7147 39.7526 -57.2493
rradius 65.2461 -0 0
rwrist -9.17702 0 0
rhand -13.2131 -40.1234 0.0157737
rfingers 0 0 0
rthumb 12.8844 -69.6702 0.0279019
818
root -5.20138 14.6249 -40.4913 25.5771 -72.801 -16.1056
lfemur -70.3085 20.4612 -23.5964
ltibia 87.3065 -0 0
lfoot -7.87709 9.60127 -0.00908354
ltoes -15.4281 0 0
rfemur -33.8696 -9.68894 23.3674
rtibia 71.9111 -0 0
rfoot -33.0714 -27.3248 0.00767364
rtoes -22.0635 0 0
lowerback 18.3121 0.414236 4.67772
upperback 0.303333 1.59253 1.21515
thorax -9.88292 0.536523 -1.74836
lowerneck -2.20112 13.0001 5.18536
upperneck -1.58674 17.2884 -9.25108
head 1.23742 8.60595 -3.36131
lclavicle 0 0 0
lhumerus 105.606 -34.8264 17.277
lradius 102.178 -0 0
lwrist 18.1272 0 0
lhand -9.20383 23.3884 -0.014933
lfingers 0 0 0
lthumb 16.7498 52.6749 -0.0158104
rclavicle 0 0 0
rhumerus 28.6496 39.8042 -56.8709
rradius 64.9734 -0 0
rwrist -8.84582 0 0
rhand -13.4369 -40.157 0.00909799
rfingers 0 0 0
rthumb 12.67 -69.7322 0.0160933
819
root -5.16677 14.6297 -40.5064 25.2018 -72.5326 -15.6927
lfemur -70.3654 20.4907 -23.7551
ltibia 87.4419 -0 0
lfoot -7.93127 9.67596 -0.00412795
ltoes -15.4374 0 0
rfemur -34.051 -9.72498 23.4889
rtibia 71.9361 -0 0
rfoot -33.1246 -27.3891 0.00348725
rtoes -22.0275 0 0
lowerback 18.3408 0.399216 4.70362
upperback 0.309786 1.57855 1.19705
thorax -9.89043 0.527695 -1.77998
lowerneck -2.19221 13.037 5.20827
upperneck -1.61093 17.3365 -9.30677
head 1.23748 8.63058 -3.38065
lclavicle 0 0 0
lhumerus 106.172 -34.8893 16.5191
lradius 102.813 -0 0
lwrist 18.6418 0 0
lhand -9.07149 23.3384 -0.00678593
lfingers 0 0 0
lthumb 16.8774 52.62 -0.00718465
rclavicle 0 0 0
rhumerus 29.3338 39.839 -56.5935
rradius 64.774 -0 0
rwrist -8.60366 0 0
rhand -13.6006 -40.1815 0.00413424
rfingers 0 0 0
rthumb 12.5133 -69.7775 0.00731304
820
root -5.14557 14.6327 -40.5157 24.9773 -72.3676 -15.4452
lfemur -70.4004 20.5087 -23.8526
ltibia 87.5249 -0 0
lfoot -7.96451 9.72179 -0.00105207
ltoes -15.4432 0 0
rfemur -34.1624 -9.74691 23.5634
rtibia 71.9515 -0 0
rfoot -33.1573 -27.4285 0.000888778
rtoes -22.0055 0 0
lowerback 18.3585 0.389993 4.71951
upperback 0.313748 1.56998 1.18595
thorax -9.89503 0.522275 -1.79938
lowerneck -2.18674 13.0597 5.22233
upperneck -1.62581 17.3661 -9.34096
head 1.23751 8.64569 -3.39251
lclavicle 0 0 0
lhumerus 106.521 -34.9248 16.0534
lradius 103.203 -0 0
lwrist 18.9576 0 0
lhand -8.99028 23.3077 -0.00172944
lfingers 0 0 0
lthumb 16.9558 52.5863 -0.00183106
rclavicle 0 0 0
rhumerus 29.754 39.8591 -56.4229
rradius 64.6516 -0 0
rwrist -8.45507 0 0
rhand -13.701 -40.1966 0.00105363
rfingers 0 0 0
rthumb 12.4171 -69.8053 0.00186376
821
root -3.66157 14.7792 -40.4415 24.902 -72.3114 -15.362
lfemur -70.4123 20.5148 -23.8857
ltibia 87.5532 0 0
lfoot -7.97581 9.73737 0
ltoes -15.4451 0 0
rfemur -34.2003 -9.75434 23.5888
rtibia 71.9567 0 0
rfoot -33.1684 -27.4419 0
rtoes -21.998 0 0
lowerback 18.3645 0.386855 4.72491
upperback 0.315096 1.56706 1.18217
thorax -9.8966 0.520432 -1.80598
lowerneck -2.18488 13.0674 5.22711
upperneck -1.63087 17.3761 -9.35259
head 1.23752 8.65083 -3.39655
lclavicle 4.22417e-15 7.85199e-15 0
lhumerus 106.639 -34.9364 15.8949
lradius 103.336 0 0
lwrist 19.065 0 0
lhand -8.96267 23.2973 0
lfingers 7.12502 0 0
lthumb 16.9824 52.5749 0
rclavicle 4.22417e-15 7.85199e-15 0
rhumerus 29.8969 39.8657 -56.3648
rradius 64.61 0 0
rwrist -8.40454 0 0
rhand -13.7352 -40.2017 0
rfingers 7.12502 0 0
rthumb 12.3844 -69.8148 0
822
root -3.5563 14.7895 -40.4328 24.3441 -71.8658 -14.9212
lfemur -70.035 20.5867 -23.4764
ltibia 87.0183 -0 0
lfoot -7.76207 9.69035 -0.00651822
ltoes -15.4224 0 0
rfemur -33.897 -9.82098 23.4225
rtibia 71.8323 -0 0
rfoot -33.0281 -27.4539 -0.00108307
rtoes -21.9845 0 0
lowerback 18.3244 0.409479 4.67992
upperback 0.300555 1.58657 1.18856
thorax -9.89114 0.53265 -1.77748
lowerneck -2.23499 13.0102 5.17581
upperneck -1.53139 17.3049 -9.25019
head 1.2614 8.61235 -3.35625
lclavicle 0 0 0
lhumerus 104.988 -35.1721 16.7889
lradius 102.527 -0 0
lwrist 18.5531 0 0
lhand -9.38696 23.4871 -0.0535295
lfingers 0 0 0
lthumb 16.5731 52.7683 -0.0525151
rclavicle 0 0 0
rhumerus 28.3369 40.0125 -57.0929
rradius 65.2572 -0 0
rwrist -9.11649 0 0
rhand -13.6888 -39.983 0.00658585
rfingers 0 0 0
rthumb 12.4291 -69.593 0.00643729
823
root -3.45652 14.7991 -40.4184 23.7222 -71.3435 -14.4363
lfemur -69.5932 20.6675 -22.9973
ltibia 86.3935 -0 0
lfoot -7.51235 9.63539 -0.0139112
ltoes -15.3958 0 0
rfemur -33.5424 -9.89774 23.2278
rtibia 71.6869 -0 0
rfoot -32.8642 -27.4678 -0.00231136
rtoes -21.9687 0 0
lowerback 18.2776 0.43587 4.62735
upperback 0.283569 1.60938 1.19603
thorax -9.88476 0.546921 -1.74419
lowerneck -2.29344 12.9434 5.11596
upperneck -1.41539 17.2214 -9.13077
head 1.28926 8.56737 -3.3092
lclavicle 0 0 0
lhumerus 103.049 -35.4205 17.8465
lradius 101.582 -0 0
lwrist 17.955 0 0
lhand -9.88287 23.7094 -0.114285
lfingers 0 0 0
lthumb 16.0946 52.9946 -0.112116
rclavicle 0 0 0
rhumerus 26.5074 40.1647 -57.9517
rradius 66.0134 -0 0
rwrist -9.94827 0 0
rhand -13.6345 -39.7276 0.0140556
rfingers 0 0 0
rthumb 12.4814 -69.3339 0.0137386
824
root -3.36207 14.808 -40.3985 23.052 -70.7485 -13.9219
lfemur -69.0904 20.7551 -22.4522
ltibia 85.6838 -0 0
lfoot -7.22875 9.57294 -0.0220167
ltoes -15.3656 0 0
rfemur -33.1393 -9.98348 23.0059
rtibia 71.5218 -0 0
rfoot -32.6781 -27.4837 -0.00365786
rtoes -21.9507 0 0
lowerback 18.2244 0.46579 4.56761
upperback 0.264282 1.63527 1.20449
thorax -9.8775 0.563124 -1.70638
lowerneck -2.35973 12.8674 5.0481
upperneck -1.28393 17.1264 -8.99543
head 1.32084 8.51626 -3.25579
lclavicle 0 0 0
lhumerus 100.832 -35.6669 19.0631
lradius 100.509 -0 0
lwrist 17.2758 0 0
lhand -10.4464 23.9625 -0.180947
lfingers 0 0 0
lthumb 15.551 53.2523 -0.177509
rclavicle 0 0 0
rhumerus 24.4217 40.312 -58.9363
rradius 66.8721 -0 0
rwrist -10.8929 0 0
rhand -13.5728 -39.4374 0.0222454
rfingers 0 0 0
rthumb 12.5408 -69.0396 0.0217437
825
root -3.27281 14.8163 -40.3734 22.3477 -70.0846 -13.3912
lfemur -68.5298 20.8472 -21.8446
ltibia 84.8946 -0 0
lfoot -6.91333 9.50343 -0.0306678
ltoes -15.332 0 0
rfemur -32.6904 -10.077 22.7585
rtibia 71.3381 -0 0
rfoot -32.4711 -27.5013 -0.00509479
rtoes -21.9308 0 0
lowerback 18.1652 0.499 4.50114
upperback 0.242837 1.66408 1.2139
thorax -9.86942 0.581138 -1.66433
lowerneck -2.43331 12.7828 4.97275
upperneck -1.13809 17.0204 -8.84526
head 1.35591 8.45938 -3.19644
lclavicle 0 0 0
lhumerus 98.3535 -35.8957 20.4328
lradius 99.3151 -0 0
lwrist 16.5205 0 0
lhand -11.0734 24.2447 -0.252155
lfingers 0 0 0
lthumb 14.946 53.5396 -0.247357
rclavicle 0 0 0
rhumerus 22.0939 40.4434 -60.0411
rradius 67.8272 -0 0
rwrist -11.9434 0 0
rhand -13.5042 -39.1148 0.0309864
rfingers 0 0 0
rthumb 12.607 -68.7123 0.0302877
826
root -3.1886 14.8239 -40.3435 21.6221 -69.3558 -12.8559
lfemur -67.9149 20.9417 -21.1783
ltibia 84.0311 -0 0
lfoot -6.5682 9.42733 -0.0396951
ltoes -15.2953 0 0
rfemur -32.1987 -10.1772 22.4868
rtibia 71.1372 -0 0
rfoot -32.2447 -27.5206 -0.006594
rtoes -21.909 0 0
lowerback 18.1003 0.535258 4.42837
upperback 0.219378 1.6956 1.22418
thorax -9.86056 0.600841 -1.61831
lowerneck -2.51366 12.6901 4.89047
upperneck -0.978944 16.9039 -8.68137
head 1.39421 8.39711 -3.13155
lclavicle 0 0 0
lhumerus 95.6269 -36.0905 21.948
lradius 98.0091 -0 0
lwrist 15.694 0 0
lhand -11.7598 24.5544 -0.326525
lfingers 0 0 0
lthumb 14.2837 53.8547 -0.320302
rclavicle 0 0 0
rhumerus 19.539 40.5479 -61.2589
rradius 68.8722 -0 0
rwrist -13.0929 0 0
rhand -13.4291 -38.7617 0.0401077
rfingers 0 0 0
rthumb 12.6794 -68.3542 0.0392035
827
root -3.10929 14.8309 -40.309 20.8858 -68.5661 -12.3257
lfemur -67.2491 21.0361 -20.457
ltibia 83.0984 -0 0
lfoot -6.19543 9.34508 -0.0489297
ltoes -15.2557 0 0
rfemur -31.6669 -10.2827 22.1923
rtibia 70.9202 -0 0
rfoot -32 -27.5415 -0.00812741
rtoes -21.8854 0 0
lowerback 18.0302 0.574326 4.34974
upperback 0.194046 1.72965 1.23527
thorax -9.85097 0.622114 -1.56861
lowerneck -2.60026 12.5899 4.80178
upperneck -0.807561 16.7777 -8.50486
head 1.43549 8.3298 -3.06153
lclavicle 0 0 0
lhumerus 92.6696 -36.2349 23.5988
lradius 96.5985 -0 0
lwrist 14.8013 0 0
lhand -12.5016 24.8898 -0.402672
lfingers 0 0 0
lthumb 13.5679 54.1961 -0.394987
rclavicle 0 0 0
rhumerus 16.7734 40.6142 -62.5814
rradius 70.0008 -0 0
rwrist -14.3344 0 0
rhand -13.3478 -38.3803 0.0494386
rfingers 0 0 0
rthumb 12.7576 -67.9674 0.0483242
828
root -3.03473 14.8373 -40.2702 20.1479 -67.7199 -11.8087
lfemur -66.5359 21.1284 -19.6847
ltibia 82.1019 -0 0
lfoot -5.79712 9.25712 -0.0582052
ltoes -15.2133 0 0
rfemur -31.0978 -10.3926 21.8764
rtibia 70.6884 -0 0
rfoot -31.7387 -27.5638 -0.00966739
rtoes -21.8602 0 0
lowerback 17.9553 0.615963 4.26566
upperback 0.166987 1.76603 1.2471
thorax -9.8407 0.644834 -1.51549
lowerneck -2.69258 12.4827 4.70723
upperneck -0.625014 16.6423 -8.31682
head 1.47949 8.25783 -2.98677
lclavicle 0 0 0
lhumerus 89.501 -36.313 25.373
lradius 95.0913 -0 0
lwrist 13.8475 0 0
lhand -13.2948 25.2492 -0.479227
lfingers 0 0 0
lthumb 12.8026 54.5617 -0.470066
rclavicle 0 0 0
rhumerus 13.8153 40.6314 -63.9982
rradius 71.2067 -0 0
rwrist -15.6609 0 0
rhand -13.261 -37.9729 0.0588109
rfingers 0 0 0
rthumb 12.8413 -67.554 0.0574854
